<svg width="48" height="48" viewBox="0 0 48 48" fill="none" xmlns="http://www.w3.org/2000/svg">
  <circle cx="24" cy="24" r="22" fill="#3B82F6" stroke="#ffffff" stroke-width="4"/>
  <path d="M30.92 14.01C30.72 13.42 30.16 13 29.5 13H18.5C17.84 13 17.28 13.42 17.08 14.01L15 20V28C15 28.55 15.45 29 16 29H17C17.55 29 18 28.55 18 28V27H30V28C30 28.55 30.45 29 31 29H32C32.55 29 33 28.55 33 28V20L30.92 14.01ZM18.5 24C17.67 24 17 23.33 17 22.5S17.67 21 18.5 21S20 21.67 20 22.5S19.33 24 18.5 24ZM29.5 24C28.67 24 28 23.33 28 22.5S28.67 21 29.5 21S31 21.67 31 22.5S30.33 24 29.5 24ZM17.81 20L19.5 15H28.5L30.19 20H17.81Z" fill="white"/>
  <circle cx="24" cy="24" r="2" fill="#ffffff" opacity="0.8"/>
</svg>